<mxfile host="65bd71144e">
    <diagram id="3zd3tJdVK4WYSJ5Bz9EF" name="Page-1">
        <mxGraphModel dx="187" dy="272" grid="1" gridSize="10" guides="1" tooltips="1" connect="1" arrows="1" fold="1" page="1" pageScale="1" pageWidth="850" pageHeight="1100" math="0" shadow="0">
            <root>
                <mxCell id="0"/>
                <mxCell id="1" parent="0"/>
                <mxCell id="2" value="Области TextMate" style="edgeStyle=orthogonalEdgeStyle;html=1;" parent="1" source="4" target="15" edge="1">
                    <mxGeometry relative="1" as="geometry">
                        <mxPoint x="455" y="520" as="targetPoint"/>
                        <Array as="points">
                            <mxPoint x="400" y="500"/>
                            <mxPoint x="400" y="500"/>
                        </Array>
                    </mxGeometry>
                </mxCell>
                <mxCell id="3" style="edgeStyle=orthogonalEdgeStyle;html=1;exitX=1;exitY=0.5;exitDx=0;exitDy=0;exitPerimeter=0;entryX=0;entryY=0.5;entryDx=0;entryDy=0;jumpStyle=arc;" parent="1" source="11" target="13" edge="1">
                    <mxGeometry relative="1" as="geometry">
                        <Array as="points">
                            <mxPoint x="280" y="500"/>
                            <mxPoint x="280" y="420"/>
                        </Array>
                    </mxGeometry>
                </mxCell>
                <mxCell id="4" value="Применение грамматик TextMate" style="rounded=1;whiteSpace=wrap;html=1;" parent="1" vertex="1">
                    <mxGeometry x="295" y="470" width="120" height="60" as="geometry"/>
                </mxCell>
                <mxCell id="5" style="edgeStyle=orthogonalEdgeStyle;html=1;entryX=0.25;entryY=0;entryDx=0;entryDy=0;exitX=0.5;exitY=1;exitDx=0;exitDy=0;jumpStyle=arc;" parent="1" source="7" target="4" edge="1">
                    <mxGeometry relative="1" as="geometry">
                        <Array as="points">
                            <mxPoint x="235" y="350"/>
                            <mxPoint x="325" y="350"/>
                        </Array>
                    </mxGeometry>
                </mxCell>
                <mxCell id="6" style="edgeStyle=orthogonalEdgeStyle;html=1;" parent="1" source="7" target="13" edge="1">
                    <mxGeometry relative="1" as="geometry">
                        <Array as="points">
                            <mxPoint x="235" y="350"/>
                        </Array>
                    </mxGeometry>
                </mxCell>
                <mxCell id="7" value="&lt;span style=&quot;white-space: pre;&quot;&gt;&#9;&lt;/span&gt;Исходный код" style="html=1;dashed=0;whitespace=wrap;shape=mxgraph.dfd.dataStoreID;align=left;spacingLeft=3;points=[[0,0],[0.5,0],[1,0],[0,0.5],[1,0.5],[0,1],[0.5,1],[1,1]];" parent="1" vertex="1">
                    <mxGeometry x="160" y="310" width="150" height="30" as="geometry"/>
                </mxCell>
                <mxCell id="8" style="edgeStyle=orthogonalEdgeStyle;html=1;exitX=0.5;exitY=1;exitDx=0;exitDy=0;jumpStyle=arc;" parent="1" source="9" target="4" edge="1">
                    <mxGeometry relative="1" as="geometry">
                        <Array as="points">
                            <mxPoint x="235" y="400"/>
                            <mxPoint x="325" y="400"/>
                        </Array>
                    </mxGeometry>
                </mxCell>
                <mxCell id="9" value="&lt;span style=&quot;white-space: pre;&quot;&gt;&#9;&lt;/span&gt;Грамматики TextMate" style="html=1;dashed=0;whitespace=wrap;shape=mxgraph.dfd.dataStoreID;align=left;spacingLeft=3;points=[[0,0],[0.5,0],[1,0],[0,0.5],[1,0.5],[0,1],[0.5,1],[1,1]];" parent="1" vertex="1">
                    <mxGeometry x="160" y="365" width="150" height="30" as="geometry"/>
                </mxCell>
                <mxCell id="10" value="Запрос &lt;br&gt;отображения&lt;br&gt;файла" style="edgeStyle=none;html=1;exitX=1;exitY=0.5;exitDx=0;exitDy=0;exitPerimeter=0;" parent="1" source="11" target="4" edge="1">
                    <mxGeometry x="-0.1304" relative="1" as="geometry">
                        <mxPoint as="offset"/>
                    </mxGeometry>
                </mxCell>
                <mxCell id="11" value="Начало" style="html=1;dashed=0;whitespace=wrap;shape=mxgraph.dfd.start" parent="1" vertex="1">
                    <mxGeometry x="100" y="485" width="80" height="30" as="geometry"/>
                </mxCell>
                <mxCell id="12" value="Семантические&lt;br&gt;токены" style="edgeStyle=orthogonalEdgeStyle;jumpStyle=arc;html=1;exitX=1;exitY=0.5;exitDx=0;exitDy=0;" parent="1" source="13" target="15" edge="1">
                    <mxGeometry x="-0.2414" relative="1" as="geometry">
                        <mxPoint as="offset"/>
                    </mxGeometry>
                </mxCell>
                <mxCell id="13" value="Обработка языковым сервером" style="rounded=1;whiteSpace=wrap;html=1;" parent="1" vertex="1">
                    <mxGeometry x="365" y="390" width="120" height="60" as="geometry"/>
                </mxCell>
                <mxCell id="14" style="edgeStyle=orthogonalEdgeStyle;jumpStyle=arc;html=1;exitX=1;exitY=0.5;exitDx=0;exitDy=0;" parent="1" source="15" target="16" edge="1">
                    <mxGeometry relative="1" as="geometry"/>
                </mxCell>
                <mxCell id="15" value="Отображение" style="rounded=1;whiteSpace=wrap;html=1;" parent="1" vertex="1">
                    <mxGeometry x="570" y="470" width="120" height="60" as="geometry"/>
                </mxCell>
                <mxCell id="16" value="Конец" style="html=1;dashed=0;whitespace=wrap;shape=mxgraph.dfd.start" parent="1" vertex="1">
                    <mxGeometry x="720" y="485" width="80" height="30" as="geometry"/>
                </mxCell>
            </root>
        </mxGraphModel>
    </diagram>
</mxfile>